<!-- icon666.com - MILLIONS vector ICONS FREE --><svg id="Layer_1" enable-background="new 0 0 48 48" viewBox="0 0 48 48" xmlns="http://www.w3.org/2000/svg"><g><g><path d="m28.3 31.3h-21.6c-.9 0-1.7-.6-1.9-1.5l-4.3-19.5c-.1-.6 0-1.2.4-1.6s.9-.7 1.5-.7h21.2c1.1 0 2 .9 2 2s-.9 2-2 2h-18.7l3.4 15.6h18.7l9.7-25.6c.3-.8 1-1.3 1.8-1.3h7.1c1.1 0 2 .9 2 2s-.9 2-2 2h-5.7l-9.7 25.3c-.3.8-1.1 1.3-1.9 1.3z" fill="#000000" style="fill: rgb(250, 250, 250);"></path></g><g><g><path d="m9.6 47.5c-3.6 0-6.6-2.9-6.6-6.5s2.9-6.5 6.6-6.5c3.6 0 6.6 2.9 6.6 6.5s-2.9 6.5-6.6 6.5zm0-9.2c-1.4 0-2.6 1.2-2.6 2.7s1.2 2.6 2.6 2.6 2.6-1.2 2.6-2.6-1.1-2.7-2.6-2.7z" fill="#000000" style="fill: rgb(250, 250, 250);"></path></g><g><path d="m25.2 47.5c-3.6 0-6.6-2.9-6.6-6.5s2.9-6.5 6.6-6.5 6.6 2.9 6.6 6.5-3 6.5-6.6 6.5zm0-9.2c-1.5 0-2.6 1.2-2.6 2.6s1.2 2.6 2.6 2.6c1.5 0 2.6-1.2 2.6-2.6s-1.2-2.6-2.6-2.6z" fill="#000000" style="fill: rgb(250, 250, 250);"></path></g></g></g></svg>