<!-- icon666.com - MILLIONS vector ICONS FREE --><svg enable-background="new 0 0 32 32" viewBox="0 0 32 32" xmlns="http://www.w3.org/2000/svg"><g id="Layer_1"><g fill="rgb(0,0,0)"><path d="m29.5 8h-21.5488l-.4737-2.21c-.0986-.4609-.5058-.79-.9775-.79h-4c-.5527 0-1 .4473-1 1s.4473 1 1 1h3.1914l2.8311 13.21c.0986.4609.5058.79.9775.79h17c.4512 0 .8457-.3018.9648-.7373l3-11c.082-.2998.0195-.6221-.1699-.8701-.1894-.2471-.4834-.3926-.7949-.3926zm-3.7637 11h-15.4277l-1.9287-9h19.8105z" fill="rgb(0,0,0)" style="fill: rgb(255, 255, 255);"></path><path d="m23 22c-1.3789 0-2.5 1.1211-2.5 2.5s1.1211 2.5 2.5 2.5 2.5-1.1211 2.5-2.5-1.1211-2.5-2.5-2.5zm0 3c-.2754 0-.5-.2246-.5-.5s.2246-.5.5-.5.5.2246.5.5-.2246.5-.5.5z" fill="rgb(0,0,0)" style="fill: rgb(255, 255, 255);"></path><path d="m12 27c1.3789 0 2.5-1.1211 2.5-2.5s-1.1211-2.5-2.5-2.5-2.5 1.1211-2.5 2.5 1.1211 2.5 2.5 2.5zm0-3c.2754 0 .5.2246.5.5s-.2246.5-.5.5-.5-.2246-.5-.5.2246-.5.5-.5z" fill="rgb(0,0,0)" style="fill: rgb(255, 255, 255);"></path><path d="m15.5 17h6c.5527 0 1-.4473 1-1s-.4473-1-1-1h-6c-.5527 0-1 .4473-1 1s.4473 1 1 1z" fill="rgb(0,0,0)" style="fill: rgb(255, 255, 255);"></path><path d="m15.5 14h6c.5527 0 1-.4473 1-1s-.4473-1-1-1h-6c-.5527 0-1 .4473-1 1s.4473 1 1 1z" fill="rgb(0,0,0)" style="fill: rgb(255, 255, 255);"></path></g></g></svg>