<!-- icon666.com - MILLIONS vector ICONS FREE --><svg id="svg2772" viewBox="0 0 16.933333 16.933334" xmlns="http://www.w3.org/2000/svg" xmlns:svg="http://www.w3.org/2000/svg"><g id="layer1" transform="translate(0 -280.067)"><path id="path1820" d="m1.623936 281.14485c-.1819012-.004-.2976562.015-.2976562.015a.26460982.26460982 0 1 0 .08785.52142s.3296943-.0539.7265707.0879c.396876.14174.8469375.45487 1.0914062 1.31051.2223079.77808.4345244 1.53124.6356202 2.2531l1.870687 7.02076a.26460982.26460982 0 0 0 .019121.0512c.2243426.87992.3829225 1.51308.3829225 1.51308l.00827.0346c-.1669891.18736-.2718181.43106-.2718181.6997 0 .58137.476966 1.05679 1.0583333 1.05679.5813677 0 1.0588501-.47542 1.0588501-1.05679 0-.19398-.056945-.3743-.1493448-.53123h4.0013061c-.08355.15115-.135394.32219-.135394.50591 0 .58137.477485 1.05834 1.058852 1.05834s1.056782-.47697 1.056782-1.05834-.475415-1.05885-1.056782-1.05885c-.07513 0-.148264.009-.219109.0238h-5.9510599c-.011031-.045-.1080514-.4377-.260966-1.04231l7.2026599-.0165a.26460982.26460982 0 0 0 .253732-.1912l2.117183-7.40833a.26460982.26460982 0 0 0 -.253731-.33797h-11.4494297c-.1520324-.54213-.3044039-1.08479-.4687054-1.65984-.2846977-.99645-.8924533-1.47551-1.4216186-1.6645-.2645827-.0945-.5126301-.12188-.6945313-.12609zm2.7352337 3.98012h10.9471343l-1.964738 6.87865-7.1390979.0176c-.3679918-1.44313-.9692905-3.75434-1.8184937-6.80321zm8.4785513 8.97929c.261705.0332.458887.2505.458887.52245 0 .29539-.231715.52917-.5271.52917-.295384 0-.529166-.23378-.529166-.52917 0-.24278.159019-.44193.379305-.50591h.12609a.2646485.2646485 0 0 0 .09198-.0165zm-5.9024812.0186c.2953846 0 .5296834.23378.5296834.52916 0 .29539-.2342988.52917-.5296834.52917-.2953845 0-.5291667-.23378-.5291667-.52917 0-.29538.2337822-.52916.5291667-.52916z" font-variant-ligatures="normal" font-variant-position="normal" font-variant-caps="normal" font-variant-numeric="normal" font-variant-alternates="normal" font-feature-settings="normal" text-indent="0" text-align="start" text-decoration-line="none" text-decoration-style="solid" text-decoration-color="rgb(0,0,0)" text-transform="none" text-orientation="mixed" white-space="normal" shape-padding="0" isolation="auto" mix-blend-mode="normal" solid-color="rgb(0,0,0)" solid-opacity="1" vector-effect="none" fill="#000000" style="fill: rgb(241, 109, 127);"></path></g></svg>